<?xml version="1.0" standalone="no"?>
<!DOCTYPE svg PUBLIC "-//W3C//DTD SVG 20010904//EN"
 "http://www.w3.org/TR/2001/REC-SVG-20010904/DTD/svg10.dtd">
<svg version="1.0" xmlns="http://www.w3.org/2000/svg"
 width="956.000000pt" height="550.000000pt" viewBox="0 0 956.000000 550.000000"
 preserveAspectRatio="xMidYMid meet">

<g transform="translate(0.000000,550.000000) scale(0.100000,-0.100000)"
fill="#000000" stroke="none">
<path d="M851 5468 c-18 -50 -113 -499 -106 -506 3 -4 320 -10 703 -13 707 -6
721 -7 862 -46 157 -43 308 -160 369 -284 134 -274 -28 -607 -389 -801 -135
-72 -338 -135 -505 -157 -129 -16 -445 -22 -445 -8 0 7 62 259 138 560 76 301
136 550 133 553 -9 9 -930 4 -936 -6 -12 -19 -386 -1622 -380 -1629 13 -12
1084 -6 1235 7 1101 98 1763 353 2045 786 109 166 148 304 149 516 0 133 -5
181 -39 340 -8 35 93 -237 478 -1290 l335 -915 -331 -7 c-1220 -25 -2097 -84
-2854 -194 -644 -93 -1098 -221 -1231 -347 -80 -76 -80 -130 0 -202 151 -136
540 -245 1268 -355 426 -65 1187 -130 1865 -160 1107 -49 2452 -30 3475 50
1385 108 2267 306 2360 530 62 149 -280 307 -920 425 -801 147 -1805 225
-3269 253 l-354 7 1053 1185 c579 652 1055 1188 1059 1192 3 3 323 3 711 -1
l705 -8 96 -25 c328 -88 512 -312 470 -570 -44 -269 -299 -511 -661 -626 -158
-50 -228 -60 -487 -68 -204 -6 -243 -4 -243 7 1 8 59 257 129 554 71 297 127
542 124 545 -3 3 -211 6 -464 8 -372 3 -460 1 -464 -10 -3 -7 -88 -366 -190
-798 -102 -432 -187 -795 -190 -807 l-5 -23 787 0 c862 0 917 3 1203 60 622
124 1091 414 1300 803 232 432 113 904 -302 1200 -183 130 -420 220 -713 267
-114 19 -175 20 -1240 20 l-1121 0 -613 -766 c-337 -421 -614 -764 -615 -762
-2 1 -83 264 -180 583 -98 319 -203 663 -235 765 l-57 185 -1752 3 -1752 2 -9
-22z m3990 -3208 c400 -31 715 -100 853 -186 90 -57 107 -109 55 -169 -85 -96
-379 -179 -794 -222 -220 -23 -747 -23 -970 0 -365 38 -605 97 -742 183 -59
37 -73 58 -73 106 0 125 376 244 905 287 149 12 612 12 766 1z"/>
<path d="M8410 1430 c0 -11 6 -20 13 -20 10 0 12 -15 9 -60 -4 -59 -4 -60 22
-60 23 0 26 4 26 38 0 52 10 82 26 82 8 0 14 9 14 20 0 18 -7 20 -55 20 -48 0
-55 -2 -55 -20z"/>
<path d="M8536 1399 c-4 -29 -10 -65 -13 -80 -5 -25 -2 -29 15 -29 17 0 22 8
27 38 10 55 13 61 14 22 2 -72 36 -80 57 -14 l12 39 1 -42 c1 -36 4 -43 21
-43 18 0 20 7 20 80 l0 80 -29 0 c-23 0 -30 -6 -38 -32 l-10 -33 -7 33 c-6 27
-12 32 -36 32 -26 0 -28 -3 -34 -51z"/>
<path d="M6945 899 c-125 -31 -219 -82 -301 -164 -98 -98 -119 -144 -119 -265
0 -85 3 -101 29 -154 100 -205 401 -333 696 -297 176 22 348 102 435 204 91
106 120 250 75 370 -40 107 -167 220 -310 275 -144 56 -351 69 -505 31z m351
-159 c76 -26 151 -83 189 -144 26 -43 30 -59 30 -120 0 -59 -5 -79 -27 -117
-158 -269 -660 -217 -720 74 -13 64 -1 113 42 179 35 53 85 90 167 124 78 32
230 34 319 4z"/>
<path d="M890 895 c0 -3 109 -203 241 -446 l241 -440 70 3 69 3 210 380 c115
209 225 408 244 443 l35 62 -130 0 -129 0 -141 -280 c-78 -154 -145 -280 -149
-280 -4 0 -71 126 -150 280 l-143 280 -134 0 c-74 0 -134 -2 -134 -5z"/>
<path d="M2560 470 l0 -430 120 0 120 0 0 430 0 430 -120 0 -120 0 0 -430z"/>
<path d="M3420 471 l0 -431 268 0 c236 0 278 2 348 20 180 46 334 151 391 268
24 48 28 70 28 137 0 67 -4 89 -27 136 -41 83 -138 171 -240 218 -146 68 -180
73 -490 78 l-278 5 0 -431z m567 257 c163 -60 244 -224 179 -363 -28 -61 -91
-119 -163 -151 -49 -22 -67 -24 -203 -24 l-150 0 0 284 0 283 143 -5 c105 -3
155 -9 194 -24z"/>
<path d="M5040 470 l0 -430 455 0 455 0 0 70 0 70 -305 0 -305 0 0 120 0 120
285 0 285 0 0 70 0 70 -285 0 -285 0 0 100 0 100 305 0 305 0 0 70 0 70 -455
0 -455 0 0 -430z"/>
</g>
</svg>
